<svg width="83" height="83" viewBox="0 0 83 83" fill="none" xmlns="http://www.w3.org/2000/svg">
<path d="M81.3025 17.0762C81.0209 16.7393 80.6687 16.4682 80.2709 16.2822C79.873 16.0963 79.4392 15.9999 79 16H18.505L16.225 3.46375C16.0994 2.7725 15.7352 2.14726 15.1959 1.69702C14.6566 1.24678 13.9763 1.0001 13.2737 1H4C3.20435 1 2.44129 1.31607 1.87868 1.87868C1.31607 2.44129 1 3.20435 1 4C1 4.79565 1.31607 5.55871 1.87868 6.12132C2.44129 6.68393 3.20435 7 4 7H10.75L20.335 59.6087C20.6173 61.169 21.3069 62.6269 22.3337 63.835C20.9164 65.1588 19.8934 66.8493 19.3782 68.719C18.863 70.5887 18.8757 72.5646 19.4149 74.4276C19.954 76.2905 20.9986 77.9677 22.4328 79.2733C23.867 80.5788 25.6348 81.4615 27.5401 81.8237C29.4454 82.1859 31.4137 82.0133 33.2269 81.3251C35.0401 80.6369 36.6273 79.4599 37.8124 77.9248C38.9975 76.3896 39.7343 74.5562 39.9411 72.6278C40.1478 70.6995 39.8165 68.7515 38.9838 67H56.0163C55.3451 68.4051 54.9978 69.9429 55 71.5C55 73.5767 55.6158 75.6068 56.7696 77.3335C57.9233 79.0602 59.5632 80.406 61.4818 81.2007C63.4004 81.9955 65.5116 82.2034 67.5484 81.7982C69.5852 81.3931 71.4562 80.3931 72.9246 78.9246C74.3931 77.4562 75.3931 75.5852 75.7982 73.5484C76.2034 71.5116 75.9955 69.4004 75.2007 67.4818C74.406 65.5632 73.0602 63.9233 71.3335 62.7696C69.6068 61.6158 67.5767 61 65.5 61H29.1887C28.4862 60.9999 27.8059 60.7532 27.2666 60.303C26.7273 59.8527 26.3631 59.2275 26.2375 58.5362L25.0487 52H68.5488C70.6564 51.9997 72.6972 51.2597 74.3151 49.909C75.9331 48.5582 77.0258 46.6825 77.4025 44.6087L81.9625 19.5363C82.0397 19.1029 82.0206 18.6579 81.9065 18.2327C81.7925 17.8076 81.5862 17.4128 81.3025 17.0762Z" stroke="black" stroke-width="1.5"/>
<rect x="35.75" y="22.75" width="22.5" height="22.5" stroke="black" stroke-width="1.5"/>
<path d="M35 28.5H25V16.5M14 25H19.5V16.5M43 16.5V22.5M52.5 16.5V22.5M58.5 30.5H67V22.5H75V16.5M58.5 38H67H71.5V28.5H80M35 38H25V34H16M30.5 16.5V25H35M63 16.5V25H58.5M58.5 42.5H63V49H68.5V42.5H77.5M52.5 45.5V51.5M43 45.5V51.5M35 42.5H30.5V51.5M18 42.5H22.5V47.5H27V51.5" stroke="black" stroke-width="1.5"/>
<rect x="25.75" y="68.75" width="6.5" height="6.5" stroke="black" stroke-width="1.5"/>
<rect x="61.75" y="68.75" width="6.5" height="6.5" stroke="black" stroke-width="1.5"/>
<path d="M5 1V4H9.5V1M14 1V10H17.5M12.5 15.5H16V20.5H14M19.5 50.5H22V56.5H26M26 70H22V64.5M27.5 68V64.5H30.5V61.5M32.5 70H35.5V61.5M30.5 75.5V78.5H35.5V80M32.5 73.5H35.5V75.5H39M26 73.5H22V78.5M27.5 75.5V81.5M40.5 61.5V64.5H46V66.5M51.5 61.5V64.5H49V66.5M61 70H55.5M63.5 68V64.5H57V61.5M67 68V66.5H74.5M61 73.5H58.5V78.5M63.5 75.5V78.5H67V81.5M68.5 71H72V73.5H76" stroke="black" stroke-width="1.5"/>
<path d="M45.1484 30.2246L42.3242 38H41.1699L44.4219 29.4688H45.166L45.1484 30.2246ZM47.5156 38L44.6855 30.2246L44.668 29.4688H45.4121L48.6758 38H47.5156ZM47.3691 34.8418V35.7676H42.5762V34.8418H47.3691ZM51.0312 29.4688V38H49.9004V29.4688H51.0312Z" fill="black"/>
</svg>
